<svg aria-label="Business icon" class="_8-yf5 " color="#262626" fill="#262626" height="24" role="img" viewBox="0 0 24 24" width="24"><path d="M20.102 10.853v8.96a1.333 1.333 0 01-1.333 1.334H5.436a1.333 1.333 0 01-1.333-1.333v-8.961" fill="none" stroke="currentColor" stroke-linecap="round" stroke-linejoin="round" stroke-width="2"></path><path d="M9.658 21.147V16.31a1.333 1.333 0 011.333-1.333h2.223a1.333 1.333 0 011.333 1.333v4.837M2.1 8.372a2.5 2.5 0 005 0m0 0a2.5 2.5 0 005 0m0 0a2.5 2.5 0 005 0" fill="none" stroke="currentColor" stroke-linecap="round" stroke-linejoin="round" stroke-width="2"></path><path d="M17.1 8.372a2.5 2.5 0 005 0V6.158l-2.685-3.305H4.785L2.1 6.158v2.214" fill="none" stroke="currentColor" stroke-linecap="round" stroke-linejoin="round" stroke-width="2"></path></svg>